<svg version="1" xmlns="http://www.w3.org/2000/svg" width="682.667" height="682.667" viewBox="0 0 512.000000 512.000000"><path d="M234.5 2c-15.6 1.7-18.5 2.2-40 7-8.8 1.9-39.5 12.8-40.6 14.3-.3.5-.9.8-1.3.7-.4-.1-5.3 2.1-10.9 4.9-10.6 5.3-12.6 6.4-16.6 9.3-1.3 1-2.7 1.5-3.2 1.2-.5-.3-.9 0-.9.6s-.8 1.4-1.7 1.7c-1 .4-2.2 1.1-2.8 1.5-.5.5-5 3.8-10 7.4-4.9 3.6-9.5 7.2-10.1 8-.6.8-1.6 1.4-2.2 1.4-.5 0-1.3.7-1.6 1.6-.4.9-.9 1.5-1.1 1.2-.7-.7-21.2 19.5-21.1 20.7.1.5-.5.9-1.2.7-.6-.1-1.2.2-1.2.6 0 .5-.8 1.7-1.8 2.8-3.9 4.2-16.3 19.7-17.4 21.7-.6 1.2-1.4 2.4-1.8 2.7-2.9 2-20.5 33.8-25.1 45.5-.5 1.1-1.5 3.8-2.4 6-3.8 9.3-10.6 32.9-12.1 41.5-.3 1.4-.9 4.7-1.4 7.5-4.2 22.3-4.7 54.6-1.4 79.5.9 6.6 5.3 27.7 6.9 32.4.7 2.3 2.5 7.9 4 12.6 6.5 20.4 18.8 44.8 32.9 65.5 2.7 3.8 5.2 7.1 5.7 7.3.5.2.9.8.9 1.3 0 2.5 37.9 41.9 40.3 41.9.3 0 1.9 1.3 3.6 2.9 9.9 9.3 40.5 27.5 58.6 34.8 24.6 10 44.3 15.2 72.5 18.9 7.6 1.1 43.9 1.1 53 .1 13.8-1.6 13.5-1.5 27-4.4 18.7-3.9 45.2-13 57.5-19.6 1.1-.5 4.9-2.6 8.5-4.4 15.7-8.2 38.4-23.5 44.7-30.2 1.3-1.3 2.3-2.1 2.3-1.8 0 1.5 29.5-29.1 35-36.4 1.4-1.8 3.1-3.8 3.8-4.5.6-.7 1.2-1.7 1.2-2.2 0-.6.4-1.2.8-1.4 1.7-.7 19.1-29.5 23.6-39.2 7.7-16.3 15.8-40.7 19.1-57.1 3.6-18.2 4.4-27 4.4-52.7 0-14.7-.4-29.1-.9-32-.6-2.9-1.2-6.7-1.4-8.3-1.3-11.1-8.1-36.7-13-49.2-6.3-16.2-16.5-36.4-24.6-48.8-5-7.6-11.4-16.6-12.6-17.6-.8-.6-1.4-1.5-1.4-1.9 0-.5-2.2-3.1-5-6-2.7-2.9-5-5.4-5-5.6 0-.5-18.4-18.6-24.2-23.8C392.5 35.3 343.7 12.2 301 4.9 283 1.8 249.9.4 234.5 2z"/></svg>